<svg width="64" height="64" viewBox="0 0 64 64" fill="none" xmlns="http://www.w3.org/2000/svg">
<path d="M20.4566 6.94068H26.0442L25.372 9.07371H22.4732C22.9213 9.83643 23.1454 10.5604 23.1454 11.2455C23.1454 12.4219 22.7953 13.5078 22.0951 14.5033C21.4089 15.4987 20.3866 16.2937 19.0282 16.8884C17.6839 17.483 16.1854 17.7804 14.533 17.7804C14.0989 17.7804 13.6157 17.7545 13.0836 17.7028C12.5654 17.6382 11.9983 17.5541 11.3821 17.4507C10.4579 17.8903 9.87669 18.2393 9.63862 18.4978C9.47058 18.6788 9.38655 18.8663 9.38655 19.0602C9.38655 19.2929 9.49158 19.4933 9.70164 19.6613C10.0657 19.9587 10.6049 20.1784 11.3191 20.3206C14.1759 20.8894 16.0594 21.3484 16.9697 21.6974C18.216 22.1757 19.1543 22.7898 19.7844 23.5396C20.4286 24.2894 20.7507 25.1943 20.7507 26.2543C20.7507 27.8703 19.9455 29.2794 18.335 30.4816C16.7246 31.6968 14.2319 32.3044 10.857 32.3044C7.45402 32.3044 4.94732 31.7873 3.33687 30.7531C2.17455 30.0033 1.59338 29.1113 1.59338 28.0771C1.59338 27.2885 1.97849 26.5581 2.74871 25.8859C3.50492 25.2137 5.13637 24.619 7.64307 24.1019C6.78883 23.6624 6.21467 23.2616 5.92059 22.8997C5.51448 22.4084 5.31142 21.8978 5.31142 21.3678C5.31142 20.5016 5.68252 19.7389 6.42473 19.0796C7.18094 18.4203 8.44129 17.7674 10.2058 17.1211C8.8334 16.6169 7.83912 15.9705 7.22295 15.1819C6.62078 14.3804 6.3197 13.4497 6.3197 12.3896C6.3197 11.2649 6.6838 10.1984 7.412 9.19006C8.15421 8.16879 9.23951 7.34143 10.6679 6.70798C12.1103 6.07454 13.7628 5.75781 15.6253 5.75781C16.8156 5.75781 17.8729 5.88062 18.7972 6.12625C19.2733 6.25552 19.8265 6.527 20.4566 6.94068ZM16.0664 6.70798C15.3802 6.70798 14.7991 6.91482 14.3229 7.3285C13.5667 7.96195 12.9015 9.022 12.3274 10.5087C11.7672 11.9953 11.4871 13.4044 11.4871 14.736C11.4871 15.3694 11.6832 15.8736 12.0753 16.2485C12.4814 16.6104 12.9786 16.7914 13.5667 16.7914C14.1409 16.7914 14.638 16.6104 15.0581 16.2485C15.8564 15.5375 16.5495 14.4063 17.1377 12.855C17.7259 11.2908 18.02 9.87522 18.02 8.60832C18.02 8.03951 17.8309 7.58059 17.4528 7.23155C17.0747 6.8825 16.6126 6.70798 16.0664 6.70798ZM8.8194 24.5479C7.48903 25.0262 6.57877 25.5433 6.08864 26.0992C5.6125 26.6551 5.37444 27.2562 5.37444 27.9026C5.37444 28.7429 5.85057 29.4991 6.80283 30.1714C7.7691 30.8565 9.30253 31.1991 11.4031 31.1991C13.1536 31.1991 14.421 30.9018 15.2052 30.3071C15.9894 29.7254 16.3815 29.0402 16.3815 28.2516C16.3815 27.5536 16.0174 26.9847 15.2892 26.5452C14.575 26.1057 13.1956 25.6467 11.151 25.1684C10.1988 24.9357 9.42156 24.7289 8.8194 24.5479Z" fill="white"/>
<path d="M51.4608 35.5854L49.0094 44.4085C47.8639 48.5718 46.7465 51.5893 45.6569 53.4608C44.5674 55.3324 43.2893 56.7138 41.8226 57.605C40.3698 58.509 38.7006 58.961 36.8149 58.961C35.6275 58.961 34.7545 58.7509 34.1958 58.3308C33.637 57.9233 33.3577 57.4395 33.3577 56.8793C33.3577 56.3573 33.5881 55.9053 34.0491 55.5234C34.5101 55.1414 35.1177 54.9505 35.872 54.9505C36.5006 54.9505 36.9825 55.0969 37.3177 55.3897C37.653 55.6825 37.8206 56.0518 37.8206 56.4974C37.8206 56.9048 37.7158 57.204 37.5063 57.395C37.2968 57.5987 37.192 57.7324 37.192 57.796L37.2968 57.9297C37.3806 57.9934 37.4784 58.0252 37.5901 58.0252C38.0092 58.0252 38.3654 57.9042 38.6587 57.6623C39.399 57.0639 39.9508 56.3382 40.314 55.4852C40.5654 54.8995 41.0473 53.3526 41.7597 50.8444L46.0341 35.5854H43.1216L43.8131 33.3509C44.8607 33.3637 45.622 33.2427 46.0969 32.9881C46.5719 32.7334 47.0747 32.1605 47.6055 31.2693C49.1421 28.6847 50.7624 26.8322 52.4666 25.7118C54.1707 24.5914 56.0704 24.0312 58.1657 24.0312C59.5067 24.0312 60.4775 24.2668 61.0781 24.7379C61.6927 25.2089 62 25.8201 62 26.5712C62 27.2333 61.7975 27.7617 61.3924 28.1564C60.9873 28.5383 60.4845 28.7293 59.8838 28.7293C59.3251 28.7293 58.8641 28.5701 58.5009 28.2518C58.1378 27.9336 57.9562 27.5516 57.9562 27.106C57.9562 26.7877 58.0679 26.4503 58.2914 26.0938C58.5289 25.7373 58.6476 25.4954 58.6476 25.3681C58.6476 25.228 58.5917 25.1135 58.48 25.0243C58.3822 24.9352 58.2495 24.8906 58.0819 24.8906C57.2577 24.8906 56.4126 25.3554 55.5466 26.2848C54.1218 27.7744 52.9764 30.1298 52.1104 33.3509H55.1485L54.4152 35.5854H51.4608Z" fill="white"/>
<path d="M47.2087 1.34766H49.3159L14.3862 63.5226H12.2789L47.2087 1.34766Z" fill="white"/>
</svg>
