<svg width="96" height="96" viewBox="0 0 96 96" fill="none" xmlns="http://www.w3.org/2000/svg">
<path opacity="0.5" fill-rule="evenodd" clip-rule="evenodd" d="M93.4972 63.2467C95.1537 58.3352 95.9896 53.1645 95.9968 47.9827C95.997 47.9598 95.9972 47.9485 95.9974 47.9451C95.9897 45.3195 95.7733 42.6959 95.3398 40.1059C94.5358 35.3027 92.9918 30.6288 90.774 26.2921C88.6025 22.0448 85.7924 18.1275 82.4689 14.703C79.1629 11.2968 75.3541 8.38254 71.1979 6.08623C66.9459 3.7373 62.3387 2.04298 57.5766 1.07981C52.6324 0.0799561 47.5278 -0.135323 42.515 0.434767C37.6412 0.988911 32.8583 2.29414 28.382 4.29942C24.0159 6.25447 19.9507 8.86652 16.355 12.0184C12.7888 15.1439 9.68881 18.7949 7.1868 22.8214C4.6369 26.9252 2.71529 31.4126 1.51139 36.0897C0.14782 41.3864 -0.295259 46.9135 0.203704 52.3592C0.652373 57.2524 1.85787 62.0699 3.77389 66.5963C5.63962 71.0015 8.17196 75.1198 11.2544 78.7795C14.308 82.4049 17.8974 85.5759 21.8739 88.1577C25.9207 90.7849 30.3635 92.7965 35.0114 94.0986C39.8414 95.4508 44.8797 96.0321 49.8909 95.8375C54.8438 95.6446 59.7616 94.6886 64.42 92.9951C68.9322 91.3542 73.1897 89.0291 77.013 86.1277C80.7884 83.2629 84.1358 79.8399 86.9148 76.0032C89.733 72.1122 91.962 67.7987 93.4972 63.2467ZM95.9992 47.992L95.9992 47.9835C95.9928 43.1126 95.2735 38.2569 93.8165 33.606C92.3532 28.9353 90.1641 24.4966 87.3547 20.4868C84.5765 16.5209 81.1963 12.9783 77.3643 10.0147C73.5011 7.02708 69.1845 4.6327 64.6012 2.94476C59.8686 1.2018 54.8638 0.221881 49.8239 0.033711C44.7264 -0.156053 39.6035 0.455498 34.7009 1.86438C29.9835 3.21984 25.4824 5.30884 21.3997 8.02932C17.3673 10.7163 13.746 14.0125 10.6931 17.7735C7.6219 21.5576 5.13027 25.809 3.33879 30.341C1.50979 34.9703 0.41766 39.8802 0.100718 44.846C-0.197063 49.5088 0.163787 54.2162 1.20562 58.7729C2.30334 63.5744 4.15151 68.1989 6.66309 72.4383C9.13316 76.6084 12.2387 80.3989 15.8392 83.6464C19.4509 86.9035 23.5552 89.6112 27.9764 91.6412C32.5086 93.7222 37.3649 95.0833 42.3187 95.6669C47.4169 96.2673 52.6117 96.056 57.642 95.0322C62.4848 94.0467 67.1671 92.303 71.4757 89.8847C75.7069 87.5102 79.5725 84.4923 82.9048 80.9682C86.2426 77.4376 89.0424 73.4031 91.1724 69.0377C93.3519 64.5711 94.8232 59.7688 95.5218 54.8501C95.8435 52.5864 95.9968 50.3029 96 48.017L95.9992 47.992ZM92.9014 47.9989C92.8932 52.8395 92.1109 57.6703 90.5631 62.2585C89.1268 66.517 87.0416 70.5515 84.4054 74.1921C81.806 77.7817 78.6741 80.983 75.1423 83.6636C71.5657 86.3777 67.5828 88.5528 63.3619 90.0877C59.0038 91.672 54.4037 92.5666 49.7702 92.7468C45.0823 92.9286 40.3689 92.3848 35.8511 91.1194C31.5033 89.9019 27.3471 88.0194 23.5614 85.562C19.8411 83.1469 16.4833 80.1801 13.6268 76.789C10.7432 73.3653 8.37372 69.5126 6.62854 65.392C4.83547 61.1582 3.70821 56.6509 3.28828 52.0734C2.82125 46.9817 3.23639 41.8142 4.51134 36.8612C5.6378 32.4854 7.43567 28.2875 9.82031 24.4492C12.1603 20.6826 15.0614 17.2668 18.3969 14.343C21.7603 11.3945 25.5636 8.95068 29.6479 7.12161C33.836 5.24629 38.31 4.02478 42.8701 3.50652C47.5595 2.97311 52.3344 3.17403 56.96 4.1101C61.4148 5.01108 65.725 6.59617 69.7024 8.79361C73.5903 10.9416 77.1541 13.6685 80.2461 16.8546C83.3548 20.0583 85.9838 23.7228 88.0155 27.6959C90.0896 31.7535 91.5346 36.1252 92.2867 40.6182C92.6945 43.0564 92.8973 45.5272 92.9014 47.9989ZM92.903 47.9823L92.9028 48.008L92.903 48.0158C92.9006 50.155 92.7569 52.2927 92.4559 54.4112C91.8029 59.0126 90.4265 63.5055 88.3876 67.6835C86.3949 71.7666 83.7755 75.5412 80.6532 78.8437C77.5357 82.1415 73.92 84.964 69.9618 87.1854C65.9318 89.4466 61.5505 91.0788 57.0207 92.0005C52.3145 92.9581 47.455 93.1566 42.6857 92.5945C38.0513 92.0491 33.5087 90.775 29.2687 88.8287C25.1325 86.9294 21.2933 84.3971 17.9147 81.3497C14.5465 78.3119 11.6421 74.7654 9.33093 70.8649C6.98141 66.8998 5.2522 62.5734 4.22553 58.0813C3.25076 53.8164 2.91386 49.4095 3.19248 45.045C3.48946 40.3997 4.51054 35.8063 6.22219 31.476C7.89791 27.2358 10.2291 23.2595 13.1023 19.7186C15.9572 16.2 19.3453 13.1159 23.1175 10.6027C26.9368 8.05767 31.148 6.10342 35.5605 4.83567C40.1469 3.51768 44.9394 2.946 49.7079 3.1238C54.4229 3.30001 59.1052 4.21614 63.532 5.84668C67.8191 7.42539 71.8571 9.66588 75.4704 12.4597C79.0557 15.232 82.2172 18.5465 84.8166 22.2565C87.4447 26.0071 89.4925 30.1596 90.8616 34.529C92.2244 38.8808 92.8966 43.4248 92.903 47.9823ZM89.9757 47.9827C89.9693 52.5123 89.238 57.0332 87.7898 61.326C86.447 65.3071 84.4983 69.0792 82.033 72.4822C79.6028 75.8374 76.6753 78.8306 73.3734 81.3366C70.0299 83.8737 66.3064 85.9077 62.3602 87.3421C58.2863 88.8235 53.9856 89.6599 49.6538 89.8273C45.2709 89.9972 40.8649 89.4893 36.6408 88.306C32.5765 87.1674 28.6909 85.4085 25.1519 83.1106C21.6743 80.8526 18.5344 78.0795 15.8648 74.9093C13.1688 71.7088 10.9542 68.1065 9.32235 64.2546C7.64583 60.2966 6.59202 56.0828 6.20003 51.8035C5.76414 47.0458 6.15213 42.218 7.34326 37.5903C8.39627 33.5 10.0768 29.5756 12.3066 25.9868C14.494 22.4658 17.206 19.2725 20.3243 16.5392C23.469 13.7829 27.0248 11.4985 30.8425 9.78825C34.7575 8.03493 38.94 6.89315 43.2032 6.40838C47.5869 5.91005 52.0512 6.09742 56.3758 6.97209C60.54 7.81407 64.57 9.2963 68.2879 11.3502C71.9228 13.3579 75.2542 15.907 78.145 18.8858C81.051 21.8805 83.5091 25.3067 85.4084 29.0206C87.3475 32.8135 88.6983 36.9006 89.4017 41.101C89.7806 43.3637 89.9698 45.6562 89.9763 47.9505C89.9761 47.9413 89.9759 47.9403 89.9758 47.9563L89.9757 47.9827ZM89.9765 48.0162C89.9765 48.1 89.9781 48.019 89.9781 47.9803C89.9725 43.7186 89.3442 39.4696 88.0692 35.4008C86.7895 31.3161 84.8751 27.4339 82.4178 23.9273C79.9876 20.4589 77.0322 17.3605 73.6807 14.7692C70.3029 12.1571 66.5284 10.0633 62.5199 8.58668C58.3797 7.06458 54.0024 6.20825 49.5947 6.0432C45.1368 5.87656 40.6565 6.41156 36.3686 7.64344C32.2436 8.82827 28.3069 10.6557 24.7359 13.035C21.2089 15.3847 18.0426 18.2678 15.373 21.5568C12.6866 24.8665 10.5071 28.5845 8.94074 32.548C7.34086 36.596 6.38604 40.8905 6.10822 45.2335C5.84716 49.3166 6.16251 53.4388 7.07422 57.4287C8.03382 61.6282 9.65047 65.6722 11.8467 69.3798C14.007 73.0268 16.723 76.3413 19.8716 79.1814C23.0299 82.0302 26.6192 84.3975 30.4864 86.1732C34.4502 87.9927 38.6974 89.1839 43.03 89.6942C47.4887 90.2196 52.0321 90.0346 56.4309 89.1392C60.6661 88.2773 64.7616 86.752 68.529 84.6375C72.2293 82.5605 75.6095 79.9221 78.5243 76.8396C81.443 73.7524 83.8915 70.2234 85.7548 66.4058C87.6605 62.4997 88.9474 58.3001 89.5582 53.9977C89.84 52.0164 89.9733 50.0167 89.9765 48.0162ZM87.223 48.0003C87.2155 52.2258 86.5314 56.4432 85.1808 60.4483C83.9266 64.1678 82.1048 67.6928 79.8016 70.8733C77.5303 74.0084 74.7952 76.8055 71.7096 79.1472C68.5857 81.5185 65.1057 83.4185 61.4182 84.7588C57.6117 86.143 53.5928 86.9244 49.5444 87.0814C45.4489 87.2401 41.3319 86.7657 37.3849 85.6598C33.5872 84.5962 29.9563 82.9521 26.6488 80.8049C23.3987 78.6951 20.4656 76.1038 17.97 73.1409C15.4504 70.1502 13.3811 66.7846 11.8571 63.1847C10.2907 59.4859 9.3056 55.5487 8.93916 51.5501C8.532 47.1073 8.89525 42.5985 10.0081 38.2777C10.9925 34.4553 12.5628 30.7884 14.6457 27.4348C16.6903 24.1443 19.2242 21.1607 22.1381 18.6068C25.0768 16.0315 28.3988 13.8962 31.9665 12.2984C35.6245 10.6598 39.5332 9.59302 43.517 9.14014C47.6132 8.6745 51.7846 8.84991 55.8258 9.66717C59.7169 10.4541 63.4827 11.8391 66.9571 13.7583C70.3532 15.6344 73.4668 18.0168 76.1676 20.8003C78.8835 23.5989 81.1795 26.8002 82.9543 30.271C84.7665 33.8151 86.0287 37.6343 86.6857 41.5595C87.0417 43.6871 87.2189 45.8433 87.223 48.0003ZM87.2246 47.9828L87.2245 47.9967L87.2246 48.0163C87.2222 49.8868 87.0977 51.7558 86.8342 53.6088C86.2634 57.6289 85.0611 61.5534 83.28 65.2035C81.5396 68.77 79.2515 72.0677 76.5236 74.9525C73.8005 77.8324 70.6414 80.2986 67.1838 82.2393C63.6631 84.215 59.8367 85.6407 55.8793 86.446C51.7686 87.2831 47.523 87.4554 43.3573 86.965C39.3089 86.4882 35.3411 85.3759 31.6368 83.6752C28.0235 82.016 24.6697 79.8042 21.7182 77.1419C18.7755 74.4884 16.2384 71.3908 14.2194 67.983C12.1677 64.5186 10.6564 60.7401 9.75985 56.8156C8.90722 53.0849 8.61343 49.2306 8.85693 45.4122C9.11639 41.3538 10.0081 37.3417 11.5034 33.5583C12.9668 29.8547 15.0034 26.3808 17.5134 23.2879C20.0074 20.2142 22.9668 17.5209 26.2624 15.325C29.5987 13.1021 33.2766 11.395 37.1318 10.2875C41.1379 9.13615 45.3244 8.63623 49.4902 8.79171C53.608 8.94559 57.6987 9.74611 61.5659 11.1701C65.3117 12.5495 68.8388 14.5062 71.9954 16.9468C75.1273 19.3683 77.8896 22.2634 80.1601 25.5045C82.4561 28.7815 84.2452 32.4086 85.4411 36.2254C86.6322 40.0287 87.219 43.9994 87.2246 47.9828ZM82.5723 59.5705C83.8297 55.8422 84.4659 51.9162 84.4715 47.9829C84.4715 47.9374 84.4717 47.9379 84.4722 47.9543C84.4657 45.966 84.3012 43.9788 83.9726 42.0173C83.361 38.368 82.1883 34.8166 80.503 31.5213C78.8528 28.2945 76.7172 25.3173 74.1921 22.7156C71.6805 20.1275 68.7865 17.9125 65.6283 16.1679C62.3982 14.3835 58.8966 13.0958 55.2785 12.3639C51.5207 11.604 47.6424 11.4406 43.8335 11.8735C40.13 12.2945 36.4959 13.2864 33.0942 14.8101C29.7771 16.2955 26.6875 18.2808 23.9556 20.6752C21.246 23.0497 18.8901 25.8244 16.9893 28.8837C15.0517 32.0013 13.5915 35.4115 12.6766 38.9651C11.6428 42.9797 11.3043 47.1689 11.6827 51.2974C12.0236 55.0154 12.9393 58.6767 14.3954 62.1156C15.8133 65.4628 17.7373 68.5923 20.0796 71.3734C22.3996 74.1274 25.1276 76.5369 28.1493 78.4991C31.2245 80.4956 34.5999 82.0241 38.1318 83.0136C41.8017 84.0421 45.6298 84.4831 49.4379 84.3356C53.2021 84.1888 56.9383 83.4625 60.4781 82.1756C63.907 80.9286 67.1419 79.1617 70.0471 76.9571C72.9155 74.7796 75.459 72.1787 77.5707 69.2636C79.7118 66.3072 81.4059 63.0293 82.5723 59.5705ZM84.4737 48.0124C84.4739 48.0022 84.4739 47.992 84.4739 47.9837C84.4691 44.2785 83.9239 40.5853 82.8158 37.0476C81.7037 33.4987 80.0399 30.126 77.9052 27.0786C75.7935 24.0647 73.2253 21.3729 70.3137 19.1212C67.379 16.8512 64.0994 15.0325 60.6163 13.7496C57.0205 12.4253 53.2172 11.6806 49.3876 11.5378C45.514 11.3935 41.6221 11.8584 37.8962 12.9284C34.3117 13.9577 30.8916 15.546 27.7892 17.6127C24.7252 19.6546 21.9733 22.1591 19.6541 25.0167C17.3198 27.8926 15.4269 31.1226 14.0657 34.5663C12.6758 38.0841 11.8455 41.8148 11.6052 45.5886C11.3785 49.1415 11.6515 52.7286 12.4443 56.2002C13.2778 59.8488 14.6828 63.3626 16.5909 66.5838C18.4678 69.7524 20.8277 72.6324 23.5628 75.1001C26.3067 77.575 29.4258 79.6321 32.7853 81.1749C36.2293 82.7561 39.9192 83.791 43.6834 84.2343C47.557 84.6904 51.5048 84.5301 55.3272 83.7519C59.0068 83.0032 62.565 81.6781 65.839 79.841C69.0547 78.0367 71.991 75.7435 74.5234 73.0661C77.0597 70.3839 79.1873 67.3182 80.8055 64.0013C82.4613 60.6078 83.5798 56.9585 84.1107 53.2206C84.3558 51.4968 84.4715 49.7578 84.4739 48.0172C84.4739 48.0157 84.4738 48.0141 84.4737 48.0124Z" fill="#C7C6C6"/>
<path d="M22.2036 77.4858C21.1242 78.6109 19.8621 78.5551 19.0246 77.7537C18.1536 76.9205 18.1951 75.6687 19.1451 74.6776C20.1415 73.6387 21.4404 73.5717 22.317 74.4105C23.2143 75.2692 23.1385 76.5123 22.2036 77.4858ZM19.6042 75.0978C18.9312 75.7995 18.71 76.7922 19.3791 77.4324C20.0529 78.0767 21.0236 77.8207 21.7382 77.076C22.3641 76.423 22.677 75.4152 21.9721 74.7406C21.2663 74.0661 20.2916 74.3802 19.6042 75.0978Z" fill="#F2F2F2"/>
<path d="M27.1251 78.494C27.4093 78.6017 27.7917 78.7962 28.1334 79.0107C28.6611 79.3416 28.9461 79.6597 29.0507 80.0265C29.1353 80.3143 29.0826 80.646 28.8934 80.9466C28.5756 81.4521 28.0416 81.5853 27.5514 81.4712L27.5426 81.4856C27.7717 81.7726 27.7749 82.1609 27.6176 82.6186C27.4069 83.2357 27.2664 83.6607 27.2504 83.86L26.7347 83.5363C26.7443 83.3872 26.8632 83.0045 27.0604 82.4567C27.2775 81.8587 27.1969 81.5239 26.7562 81.2265L26.2852 80.9314L25.2378 82.5979L24.7412 82.2861L27.1251 78.494ZM26.5215 80.5559L27.0301 80.8748C27.5626 81.2081 28.0815 81.1308 28.3585 80.6899C28.6722 80.1899 28.4479 79.7474 27.9242 79.4173C27.6831 79.2658 27.5027 79.1837 27.4045 79.1526L26.5215 80.5559Z" fill="#F2F2F2"/>
<path d="M34.8415 87.1082C34.6052 87.1321 34.1597 87.0795 33.6416 86.8825C32.4448 86.4265 31.8365 85.3285 32.3682 83.9356C32.8768 82.6041 34.1174 82.0523 35.4362 82.5546C35.9607 82.7548 36.2577 82.9948 36.3727 83.1255L36.0669 83.5202C35.8977 83.3432 35.6318 83.1542 35.279 83.0203C34.281 82.64 33.3789 83.0251 32.9534 84.1397C32.5566 85.1779 32.9023 86.0693 33.9314 86.4615C34.2691 86.5899 34.6347 86.6521 34.8974 86.6306L34.8415 87.1082Z" fill="#F2F2F2"/>
<path d="M41.0895 84.1821L40.7877 86.0598L42.9576 86.4074L43.2594 84.5297L43.8422 84.623L43.1221 89.1072L42.5393 89.0139L42.877 86.9106L40.7071 86.5629L40.3694 88.6663L39.7866 88.573L40.5067 84.0896L41.0895 84.1821Z" fill="#F2F2F2"/>
<path d="M50.8116 87.1809L49.0497 87.2423L49.1071 88.8816L51.0774 88.8123L51.0942 89.3002L48.5339 89.3903L48.3743 84.8527L50.8308 84.7666L50.8475 85.2546L48.981 85.3199L49.0313 86.7567L50.7932 86.6953L50.8116 87.1809Z" fill="#F2F2F2"/>
<path d="M55.9531 87.9485C56.2453 88.0513 56.6477 88.096 57.0412 88.0083C57.6272 87.8783 57.9042 87.4956 57.8045 87.0467C57.7126 86.636 57.4181 86.4471 56.7698 86.3562C55.9882 86.2605 55.4541 85.9798 55.316 85.3595C55.1627 84.6698 55.6226 84.0304 56.4872 83.8382C56.9375 83.7378 57.2959 83.7681 57.5139 83.835L57.458 84.3398C57.2983 84.2871 56.9726 84.2265 56.5734 84.3158C55.9635 84.4514 55.8142 84.8628 55.8813 85.165C55.9731 85.5764 56.2884 85.7199 56.9534 85.8196C57.7717 85.9472 58.2316 86.2238 58.3761 86.8737C58.5278 87.5538 58.1589 88.2634 57.1075 88.497C56.678 88.5927 56.1814 88.5672 55.9092 88.4595L55.9531 87.9485Z" fill="#F2F2F2"/>
<path d="M62.7741 82.4209L61.5007 82.9639L61.3059 82.5086L64.4019 81.1882L64.5967 81.6435L63.3169 82.1897L64.908 85.9092L64.3652 86.1405L62.7741 82.4209Z" fill="#F2F2F2"/>
<path d="M67.968 79.2837C68.182 79.0684 68.5165 78.799 68.851 78.5741C69.3683 78.2273 69.7755 78.0973 70.1539 78.1515C70.4509 78.1914 70.7335 78.3748 70.9315 78.6698C71.2644 79.1649 71.1686 79.7063 70.8652 80.1074L70.8748 80.1209C71.23 80.0292 71.5869 80.1839 71.9414 80.5132C72.4196 80.9565 72.7509 81.2571 72.9265 81.3536L72.4212 81.6925C72.2887 81.6231 71.9869 81.3592 71.5669 80.9557C71.1079 80.5148 70.7694 80.451 70.3175 80.7325L69.8561 81.0418L70.9538 82.6756L70.4668 83.0017L67.968 79.2837ZM69.6078 80.6735L70.106 80.3394C70.6281 79.9894 70.7678 79.4847 70.4772 79.0525C70.1483 78.5629 69.6517 78.5869 69.1368 78.9305C68.9005 79.0892 68.7512 79.2199 68.6833 79.2973L69.6078 80.6735Z" fill="#F2F2F2"/>
<path d="M76.371 76.5703L77.0528 77.909L76.6233 78.3404L74.4909 74.0428L74.9891 73.5428L79.3073 75.6462L78.8642 76.0911L77.5079 75.4293L76.371 76.5703ZM77.0991 75.1893L75.8545 74.5866C75.5743 74.447 75.334 74.3043 75.1017 74.168L75.0905 74.1791C75.2326 74.4127 75.3795 74.6583 75.5136 74.9174L76.1307 76.1621L77.0991 75.1893Z" fill="#F2F2F2"/>
<path d="M72.5574 47.4998C72.4217 54.1838 70.2814 59.7651 66.1356 64.2437C63.8148 66.7417 61.0597 68.6824 57.8719 70.0666C54.6833 71.4508 51.3766 72.1429 47.9517 72.1429C44.9771 72.1429 42.048 71.5799 39.1636 70.4549C36.2792 69.3299 33.7221 67.7544 31.4907 65.7283C28.6286 63.1179 26.5106 59.9788 25.1359 56.3103C24.0542 53.3849 23.5137 50.4818 23.5137 47.6011C23.5137 42.2454 25.1694 37.3841 28.4826 33.0179C30.7586 29.9793 33.6199 27.6001 37.0679 25.8778C40.5152 24.1564 44.1325 23.2953 47.9174 23.2953C54.5644 23.2953 60.2885 25.5796 65.0881 30.1475C67.2285 32.1959 68.2991 33.647 68.2991 34.5025C68.2991 34.7952 68.1809 35.0423 67.9446 35.2449C67.7083 35.4474 67.4209 35.5486 67.084 35.5486C66.5667 35.5486 66.0158 35.1548 65.4298 34.367C60.9072 28.3583 55.1025 25.354 48.0148 25.354C47.159 25.354 46.2928 25.4106 45.4154 25.5222L45.2126 49.4899L45.3859 69.8457C46.2393 70.0036 47.0927 70.0818 47.9485 70.0818C50.4904 70.0818 52.9541 69.6544 55.3404 68.7989C61.3703 66.6612 65.7013 62.7344 68.3342 57.0175C69.4591 54.6096 70.1233 52.1562 70.3253 49.6582H52.6819C51.1275 49.6135 50.1919 49.5354 49.8765 49.4222C49.5604 49.3097 49.4039 49.0171 49.4039 48.5443C49.4039 47.8243 49.9444 47.4647 51.0261 47.4647L53.0539 47.4982H72.5574V47.4998Z" fill="#F2F2F2"/>
</svg>
