<svg width="96" height="96" viewBox="0 0 96 96" fill="none" xmlns="http://www.w3.org/2000/svg">
<g clip-path="url(#clip0)">
<path d="M69.4466 14C66.5367 14 63.8737 15.1135 61.4588 17.405C58.5355 20.2693 56.9363 23.9533 55.4377 29.1479C55.4149 29.2526 55.3666 29.4686 55.3036 29.7476C52.3427 29.4699 48.3273 29.3733 46.8784 30.3124C45.5247 29.5383 43.892 29.2029 41.889 29.2029C35.2025 29.2029 29.9381 34.8993 29.9381 41.2142C29.9381 43.3809 30.6813 45.1156 32.043 46.3539C28.7615 47.2205 26.7182 49.3872 26.7182 51.9268C26.7182 55.2701 29.443 56.7566 32.2912 57.6232C34.7678 58.3651 37.8011 59.3566 40.5273 60.2233C42.8174 60.9665 44.0557 62.3282 44.0557 64.3097C44.0557 67.158 41.3926 69.5111 36.3777 69.5111C30.9295 69.5111 26.3466 66.7863 26.3466 63.0715C26.3466 60.7196 28.2664 59.2332 31.0529 59.2332L30.5579 57.9332C30.1246 57.8701 29.3813 57.685 28.5764 57.685C25.1083 57.685 21.7034 59.7282 21.7034 63.3814C21.7034 69.1395 29.0097 71.6791 34.5827 71.6791C38.7161 71.6791 43.4372 70.6193 46.3672 67.9642C49.5723 65.5601 51.7591 62.4141 53.5354 58.023C55.1748 53.5958 57.5816 44.8446 59.869 35.7043L60.3989 33.551C64.3607 33.5121 68.7437 32.4979 68.9851 32.4402L69.2669 32.3731L70.6407 29.3022L69.6103 29.4364C67.8408 29.6685 63.9609 30.1072 61.2146 30.2413L61.3421 29.7221C62.0838 26.641 62.9934 23.6026 64.0669 20.6208C65.1737 17.7766 66.5367 15.9252 68.3318 15.9252C69.9417 15.9252 70.3133 16.8549 70.3133 18.1549C70.2842 18.8001 70.2017 19.4418 70.0665 20.0734C69.8183 21.1265 70.6849 21.8081 72.1084 21.8081C73.3467 21.8081 75.2048 20.9414 75.2048 18.5265C75.2021 15.8568 72.9764 14 69.4466 14ZM38.4183 33.0412C39.4714 31.6165 40.7714 30.9363 42.1949 30.9363C43.9913 30.9363 45.1061 32.298 45.1061 34.8993C45.1061 38.0561 43.8061 42.639 41.8863 44.9908C40.8962 46.1057 39.78 46.7255 38.3566 46.7255C36.8701 46.7255 35.3232 45.734 35.3232 42.7624C35.3232 39.7908 36.5642 35.4561 38.4183 33.0412ZM48.1998 57.9077C47.0756 56.1824 45.0954 55.1628 42.753 54.5269C39.6566 53.6602 36.3133 52.7935 34.0836 52.0503C32.2268 51.4935 31.2984 50.6255 31.2984 49.6354C31.2984 48.5822 32.1034 47.7156 33.4034 47.344C34.58 48.0255 36.5642 48.5259 38.2949 48.5259C45.6012 48.5259 50.2458 43.0777 50.2458 36.5763C50.2529 35.2379 49.9167 33.9201 49.2691 32.7488C51.0179 32.5102 52.7908 32.5079 54.5402 32.7421C52.395 41.8488 49.8916 51.8879 48.1998 57.9077Z" fill="url(#paint0_linear)"/>
<path d="M1.11804 79.953C1.11804 78.8073 1.89617 78.0225 2.91041 78.0225C3.95015 78.0225 4.54581 78.6007 4.61021 79.5626L4.25066 79.5854C4.21444 78.8301 3.73147 78.3351 2.90907 78.3351C2.08667 78.3351 1.50576 78.9602 1.50576 79.9584C1.50576 80.9565 2.10143 81.5683 2.94529 81.5683C3.75025 81.5683 4.23188 81.0424 4.27213 80.3166H3.06469V80.004H4.61021V81.8111H4.26274V81.08C4.10845 81.5871 3.54096 81.8849 2.93456 81.8849C1.87873 81.8822 1.11804 81.1081 1.11804 79.953Z" fill="white" stroke="white" stroke-width="0.233437" stroke-miterlimit="10"/>
<path d="M8.0662 78.0938V81.8113H7.69458V78.0938H8.0662Z" fill="white" stroke="white" stroke-width="0.233437" stroke-miterlimit="10"/>
<path d="M12.8396 81.8822C11.7542 81.8822 11.0164 81.0961 11.0164 79.953C11.0164 78.81 11.7542 78.0225 12.8396 78.0225C13.9249 78.0225 14.6628 78.8073 14.6628 79.953C14.6628 81.0987 13.9249 81.8822 12.8396 81.8822ZM12.8396 78.3351C11.9662 78.3351 11.4068 78.9669 11.4068 79.953C11.4068 80.9391 11.9662 81.5629 12.8396 81.5629C13.713 81.5629 14.2737 80.931 14.2737 79.953C14.2737 78.975 13.713 78.3351 12.8396 78.3351Z" fill="white" stroke="white" stroke-width="0.233437" stroke-miterlimit="10"/>
<path d="M18.6554 81.8113L17.1394 78.0938H17.5231L18.8647 81.4035H18.8888L20.1969 78.0938H20.5806L19.07 81.8113H18.6554Z" fill="white" stroke="white" stroke-width="0.233437" stroke-miterlimit="10"/>
<path d="M24.7583 78.0938L26.328 81.8113H25.9322L25.4291 80.6133H23.6716L23.1927 81.8113H22.8264L24.3558 78.0938H24.7583ZM23.8018 80.3007H25.2949L24.545 78.4949H24.5222L23.8018 80.3007Z" fill="white" stroke="white" stroke-width="0.233437" stroke-miterlimit="10"/>
<path d="M31.7654 81.1566V78.0938H32.1196V81.8113H31.8244L29.5102 78.6062V81.8113H29.1573V78.0938H29.5706L31.7654 81.1566Z" fill="white" stroke="white" stroke-width="0.233437" stroke-miterlimit="10"/>
<path d="M37.8535 81.1566V78.0938H38.2077V81.8113H37.9126L35.5997 78.6062V81.8113H35.2455V78.0938H35.6573L37.8535 81.1566Z" fill="white" stroke="white" stroke-width="0.233437" stroke-miterlimit="10"/>
<path d="M41.7054 78.0938V81.8113H41.3337V78.0938H41.7054Z" fill="white" stroke="white" stroke-width="0.233437" stroke-miterlimit="10"/>
<path d="M49.72 81.8113V78.0938H52.1805V78.4063H50.0849V79.7855H51.7498V80.0981H50.0849V81.8113H49.72Z" fill="white" stroke="white" stroke-width="0.233437" stroke-miterlimit="10"/>
<path d="M56.3219 78.0938L57.8956 81.8113H57.4931L56.9914 80.6133H55.2352L54.759 81.8113H54.3927L55.9208 78.0938H56.3219ZM55.3654 80.3007H56.8639L56.1153 78.4949H56.0912L55.3654 80.3007Z" fill="white" stroke="white" stroke-width="0.233437" stroke-miterlimit="10"/>
<path d="M63.4122 81.4987V81.8113H60.5157V81.5631L62.8756 78.4063H60.5453V78.0938H63.3478V78.3621L60.9947 81.5014L63.4122 81.4987Z" fill="white" stroke="white" stroke-width="0.233437" stroke-miterlimit="10"/>
<path d="M69.0227 81.4987V81.8113H66.1262V81.5631L68.4861 78.4063H66.1557V78.0938H68.9583V78.3621L66.6038 81.5014L69.0227 81.4987Z" fill="white" stroke="white" stroke-width="0.233437" stroke-miterlimit="10"/>
<path d="M73.3829 81.8822C72.2976 81.8822 71.5583 81.0961 71.5583 79.953C71.5583 78.81 72.2976 78.0225 73.3829 78.0225C74.4683 78.0225 75.2021 78.8073 75.2021 79.953C75.2021 81.0987 74.4683 81.8822 73.3829 81.8822ZM73.3829 78.3351C72.5095 78.3351 71.9487 78.9669 71.9487 79.953C71.9487 80.9391 72.5095 81.5629 73.3829 81.5629C74.2563 81.5629 74.8157 80.931 74.8157 79.953C74.8157 78.975 74.263 78.3351 73.3829 78.3351Z" fill="white" stroke="white" stroke-width="0.233437" stroke-miterlimit="10"/>
<path d="M78.5267 78.0938V81.4987H80.6625V81.8113H78.1537V78.0938H78.5267Z" fill="white" stroke="white" stroke-width="0.233437" stroke-miterlimit="10"/>
<path d="M85.1877 78.0938L86.7574 81.8113H86.3549L85.8532 80.6133H84.0957L83.6167 81.8113H83.2518L84.7799 78.0938H85.1877ZM84.2312 80.3007H85.7311L84.9811 78.4949H84.9583L84.2312 80.3007Z" fill="white" stroke="white" stroke-width="0.233437" stroke-miterlimit="10"/>
<path d="M92.0364 81.8113C91.9667 81.712 91.913 81.4276 91.8835 80.9728C91.8607 80.5703 91.6648 80.2416 91.1107 80.2416H89.9596V81.8113H89.5947V78.0938H90.9927C91.9318 78.0938 92.3799 78.5244 92.3799 79.167C92.3799 79.7466 91.9774 80.035 91.5239 80.0887C91.9948 80.1772 92.2135 80.4711 92.2497 80.9084C92.2967 81.445 92.3141 81.6758 92.4376 81.8113H92.0364ZM91.0047 79.9331C91.6943 79.9331 91.9948 79.6648 91.9948 79.1657C91.9948 78.7055 91.6943 78.405 91.0047 78.405H89.9596V79.9331H91.0047Z" fill="white" stroke="white" stroke-width="0.233437" stroke-miterlimit="10"/>
<path d="M95.789 78.0938V81.8113H95.416V78.0938H95.789Z" fill="white" stroke="white" stroke-width="0.233437" stroke-miterlimit="10"/>
</g>
<defs>
<linearGradient id="paint0_linear" x1="80.6235" y1="26.7505" x2="19.8426" y2="61.8426" gradientUnits="userSpaceOnUse">
<stop stop-color="white"/>
<stop offset="0.36" stop-color="#FDFDFD"/>
<stop offset="0.51" stop-color="#F6F6F6"/>
<stop offset="0.63" stop-color="#E9E9E9"/>
<stop offset="0.73" stop-color="#D7D7D7"/>
<stop offset="0.82" stop-color="#C0C0C0"/>
<stop offset="0.9" stop-color="#A4A3A3"/>
<stop offset="0.97" stop-color="#828282"/>
<stop offset="1" stop-color="#706F6F"/>
</linearGradient>
<clipPath id="clip0">
<rect width="94.9057" height="68" fill="white" transform="translate(1 14)"/>
</clipPath>
</defs>
</svg>
